<mxfile host="app.diagrams.net" agent="Mozilla/5.0 (Windows NT 10.0; Win64; x64) AppleWebKit/537.36 (KHTML, like Gecko) Chrome/132.0.0.0 Safari/537.36 Edg/132.0.0.0" version="27.0.6">
  <diagram name="Page-1" id="WqQekX3sTyzEhNswUoji">
    <mxGraphModel dx="1418" dy="786" grid="1" gridSize="10" guides="1" tooltips="1" connect="1" arrows="1" fold="1" page="1" pageScale="1" pageWidth="850" pageHeight="1100" math="0" shadow="0">
      <root>
        <mxCell id="0" />
        <mxCell id="1" parent="0" />
        <mxCell id="C1v7L-V6cYP2EohM0xs5-46" value="" style="shape=table;startSize=0;container=1;collapsible=0;childLayout=tableLayout;" vertex="1" parent="1">
          <mxGeometry x="230" y="130" width="440" height="80" as="geometry" />
        </mxCell>
        <mxCell id="C1v7L-V6cYP2EohM0xs5-47" value="" style="shape=tableRow;horizontal=0;startSize=0;swimlaneHead=0;swimlaneBody=0;strokeColor=inherit;top=0;left=0;bottom=0;right=0;collapsible=0;dropTarget=0;fillColor=none;points=[[0,0.5],[1,0.5]];portConstraint=eastwest;" vertex="1" parent="C1v7L-V6cYP2EohM0xs5-46">
          <mxGeometry width="440" height="40" as="geometry" />
        </mxCell>
        <mxCell id="C1v7L-V6cYP2EohM0xs5-48" value="EMPLOYEE" style="shape=partialRectangle;html=1;whiteSpace=wrap;connectable=0;strokeColor=inherit;overflow=hidden;fillColor=none;top=0;left=0;bottom=0;right=0;pointerEvents=1;rowspan=1;colspan=7;" vertex="1" parent="C1v7L-V6cYP2EohM0xs5-47">
          <mxGeometry width="440" height="40" as="geometry">
            <mxRectangle width="60" height="40" as="alternateBounds" />
          </mxGeometry>
        </mxCell>
        <mxCell id="C1v7L-V6cYP2EohM0xs5-49" value="" style="shape=partialRectangle;html=1;whiteSpace=wrap;connectable=0;strokeColor=inherit;overflow=hidden;fillColor=none;top=0;left=0;bottom=0;right=0;pointerEvents=1;" vertex="1" visible="0" parent="C1v7L-V6cYP2EohM0xs5-47">
          <mxGeometry x="60" width="60" height="40" as="geometry">
            <mxRectangle width="60" height="40" as="alternateBounds" />
          </mxGeometry>
        </mxCell>
        <mxCell id="C1v7L-V6cYP2EohM0xs5-50" value="" style="shape=partialRectangle;html=1;whiteSpace=wrap;connectable=0;strokeColor=inherit;overflow=hidden;fillColor=none;top=0;left=0;bottom=0;right=0;pointerEvents=1;" vertex="1" visible="0" parent="C1v7L-V6cYP2EohM0xs5-47">
          <mxGeometry x="120" width="60" height="40" as="geometry">
            <mxRectangle width="60" height="40" as="alternateBounds" />
          </mxGeometry>
        </mxCell>
        <mxCell id="C1v7L-V6cYP2EohM0xs5-51" value="" style="shape=partialRectangle;html=1;whiteSpace=wrap;connectable=0;strokeColor=inherit;overflow=hidden;fillColor=none;top=0;left=0;bottom=0;right=0;pointerEvents=1;" vertex="1" visible="0" parent="C1v7L-V6cYP2EohM0xs5-47">
          <mxGeometry x="180" width="61" height="40" as="geometry">
            <mxRectangle width="61" height="40" as="alternateBounds" />
          </mxGeometry>
        </mxCell>
        <mxCell id="C1v7L-V6cYP2EohM0xs5-52" value="" style="shape=partialRectangle;html=1;whiteSpace=wrap;connectable=0;strokeColor=inherit;overflow=hidden;fillColor=none;top=0;left=0;bottom=0;right=0;pointerEvents=1;" vertex="1" visible="0" parent="C1v7L-V6cYP2EohM0xs5-47">
          <mxGeometry x="241" width="59" height="40" as="geometry">
            <mxRectangle width="59" height="40" as="alternateBounds" />
          </mxGeometry>
        </mxCell>
        <mxCell id="C1v7L-V6cYP2EohM0xs5-53" value="" style="shape=partialRectangle;html=1;whiteSpace=wrap;connectable=0;strokeColor=inherit;overflow=hidden;fillColor=none;top=0;left=0;bottom=0;right=0;pointerEvents=1;" vertex="1" visible="0" parent="C1v7L-V6cYP2EohM0xs5-47">
          <mxGeometry x="300" width="61" height="40" as="geometry">
            <mxRectangle width="61" height="40" as="alternateBounds" />
          </mxGeometry>
        </mxCell>
        <mxCell id="C1v7L-V6cYP2EohM0xs5-54" value="" style="shape=partialRectangle;html=1;whiteSpace=wrap;connectable=0;strokeColor=inherit;overflow=hidden;fillColor=none;top=0;left=0;bottom=0;right=0;pointerEvents=1;" vertex="1" visible="0" parent="C1v7L-V6cYP2EohM0xs5-47">
          <mxGeometry x="361" width="79" height="40" as="geometry">
            <mxRectangle width="79" height="40" as="alternateBounds" />
          </mxGeometry>
        </mxCell>
        <mxCell id="C1v7L-V6cYP2EohM0xs5-55" value="" style="shape=tableRow;horizontal=0;startSize=0;swimlaneHead=0;swimlaneBody=0;strokeColor=inherit;top=0;left=0;bottom=0;right=0;collapsible=0;dropTarget=0;fillColor=none;points=[[0,0.5],[1,0.5]];portConstraint=eastwest;" vertex="1" parent="C1v7L-V6cYP2EohM0xs5-46">
          <mxGeometry y="40" width="440" height="40" as="geometry" />
        </mxCell>
        <mxCell id="C1v7L-V6cYP2EohM0xs5-56" value="&lt;span style=&quot;text-decoration-line: underline;&quot;&gt;SSN&lt;/span&gt;" style="shape=partialRectangle;html=1;whiteSpace=wrap;connectable=0;strokeColor=inherit;overflow=hidden;fillColor=none;top=0;left=0;bottom=0;right=0;pointerEvents=1;" vertex="1" parent="C1v7L-V6cYP2EohM0xs5-55">
          <mxGeometry width="60" height="40" as="geometry">
            <mxRectangle width="60" height="40" as="alternateBounds" />
          </mxGeometry>
        </mxCell>
        <mxCell id="C1v7L-V6cYP2EohM0xs5-57" value="FName" style="shape=partialRectangle;html=1;whiteSpace=wrap;connectable=0;strokeColor=inherit;overflow=hidden;fillColor=none;top=0;left=0;bottom=0;right=0;pointerEvents=1;" vertex="1" parent="C1v7L-V6cYP2EohM0xs5-55">
          <mxGeometry x="60" width="60" height="40" as="geometry">
            <mxRectangle width="60" height="40" as="alternateBounds" />
          </mxGeometry>
        </mxCell>
        <mxCell id="C1v7L-V6cYP2EohM0xs5-58" value="Lname" style="shape=partialRectangle;html=1;whiteSpace=wrap;connectable=0;strokeColor=inherit;overflow=hidden;fillColor=none;top=0;left=0;bottom=0;right=0;pointerEvents=1;" vertex="1" parent="C1v7L-V6cYP2EohM0xs5-55">
          <mxGeometry x="120" width="60" height="40" as="geometry">
            <mxRectangle width="60" height="40" as="alternateBounds" />
          </mxGeometry>
        </mxCell>
        <mxCell id="C1v7L-V6cYP2EohM0xs5-59" value="Gender" style="shape=partialRectangle;html=1;whiteSpace=wrap;connectable=0;strokeColor=inherit;overflow=hidden;fillColor=none;top=0;left=0;bottom=0;right=0;pointerEvents=1;" vertex="1" parent="C1v7L-V6cYP2EohM0xs5-55">
          <mxGeometry x="180" width="61" height="40" as="geometry">
            <mxRectangle width="61" height="40" as="alternateBounds" />
          </mxGeometry>
        </mxCell>
        <mxCell id="C1v7L-V6cYP2EohM0xs5-60" value="Birth Day" style="shape=partialRectangle;html=1;whiteSpace=wrap;connectable=0;strokeColor=inherit;overflow=hidden;fillColor=none;top=0;left=0;bottom=0;right=0;pointerEvents=1;" vertex="1" parent="C1v7L-V6cYP2EohM0xs5-55">
          <mxGeometry x="241" width="59" height="40" as="geometry">
            <mxRectangle width="59" height="40" as="alternateBounds" />
          </mxGeometry>
        </mxCell>
        <mxCell id="C1v7L-V6cYP2EohM0xs5-61" value="DNUM" style="shape=partialRectangle;html=1;whiteSpace=wrap;connectable=0;strokeColor=inherit;overflow=hidden;fillColor=none;top=0;left=0;bottom=0;right=0;pointerEvents=1;" vertex="1" parent="C1v7L-V6cYP2EohM0xs5-55">
          <mxGeometry x="300" width="61" height="40" as="geometry">
            <mxRectangle width="61" height="40" as="alternateBounds" />
          </mxGeometry>
        </mxCell>
        <mxCell id="C1v7L-V6cYP2EohM0xs5-62" value="supervise_id" style="shape=partialRectangle;html=1;whiteSpace=wrap;connectable=0;strokeColor=inherit;overflow=hidden;fillColor=none;top=0;left=0;bottom=0;right=0;pointerEvents=1;" vertex="1" parent="C1v7L-V6cYP2EohM0xs5-55">
          <mxGeometry x="361" width="79" height="40" as="geometry">
            <mxRectangle width="79" height="40" as="alternateBounds" />
          </mxGeometry>
        </mxCell>
        <mxCell id="C1v7L-V6cYP2EohM0xs5-63" value="" style="shape=table;startSize=0;container=1;collapsible=0;childLayout=tableLayout;" vertex="1" parent="1">
          <mxGeometry x="180" y="280" width="120" height="80" as="geometry" />
        </mxCell>
        <mxCell id="C1v7L-V6cYP2EohM0xs5-64" value="" style="shape=tableRow;horizontal=0;startSize=0;swimlaneHead=0;swimlaneBody=0;strokeColor=inherit;top=0;left=0;bottom=0;right=0;collapsible=0;dropTarget=0;fillColor=none;points=[[0,0.5],[1,0.5]];portConstraint=eastwest;" vertex="1" parent="C1v7L-V6cYP2EohM0xs5-63">
          <mxGeometry width="120" height="40" as="geometry" />
        </mxCell>
        <mxCell id="C1v7L-V6cYP2EohM0xs5-65" value="DEPARTMENT" style="shape=partialRectangle;html=1;whiteSpace=wrap;connectable=0;strokeColor=inherit;overflow=hidden;fillColor=none;top=0;left=0;bottom=0;right=0;pointerEvents=1;rowspan=1;colspan=2;" vertex="1" parent="C1v7L-V6cYP2EohM0xs5-64">
          <mxGeometry width="120" height="40" as="geometry">
            <mxRectangle width="60" height="40" as="alternateBounds" />
          </mxGeometry>
        </mxCell>
        <mxCell id="C1v7L-V6cYP2EohM0xs5-66" value="" style="shape=partialRectangle;html=1;whiteSpace=wrap;connectable=0;strokeColor=inherit;overflow=hidden;fillColor=none;top=0;left=0;bottom=0;right=0;pointerEvents=1;" vertex="1" visible="0" parent="C1v7L-V6cYP2EohM0xs5-64">
          <mxGeometry x="60" width="60" height="40" as="geometry">
            <mxRectangle width="60" height="40" as="alternateBounds" />
          </mxGeometry>
        </mxCell>
        <mxCell id="C1v7L-V6cYP2EohM0xs5-67" value="" style="shape=tableRow;horizontal=0;startSize=0;swimlaneHead=0;swimlaneBody=0;strokeColor=inherit;top=0;left=0;bottom=0;right=0;collapsible=0;dropTarget=0;fillColor=none;points=[[0,0.5],[1,0.5]];portConstraint=eastwest;" vertex="1" parent="C1v7L-V6cYP2EohM0xs5-63">
          <mxGeometry y="40" width="120" height="40" as="geometry" />
        </mxCell>
        <mxCell id="C1v7L-V6cYP2EohM0xs5-68" value="&lt;span style=&quot;text-decoration-line: underline;&quot;&gt;DNUM&lt;/span&gt;" style="shape=partialRectangle;html=1;whiteSpace=wrap;connectable=0;strokeColor=inherit;overflow=hidden;fillColor=none;top=0;left=0;bottom=0;right=0;pointerEvents=1;" vertex="1" parent="C1v7L-V6cYP2EohM0xs5-67">
          <mxGeometry width="60" height="40" as="geometry">
            <mxRectangle width="60" height="40" as="alternateBounds" />
          </mxGeometry>
        </mxCell>
        <mxCell id="C1v7L-V6cYP2EohM0xs5-69" value="DName" style="shape=partialRectangle;html=1;whiteSpace=wrap;connectable=0;strokeColor=inherit;overflow=hidden;fillColor=none;top=0;left=0;bottom=0;right=0;pointerEvents=1;" vertex="1" parent="C1v7L-V6cYP2EohM0xs5-67">
          <mxGeometry x="60" width="60" height="40" as="geometry">
            <mxRectangle width="60" height="40" as="alternateBounds" />
          </mxGeometry>
        </mxCell>
        <mxCell id="C1v7L-V6cYP2EohM0xs5-70" value="" style="shape=table;startSize=0;container=1;collapsible=0;childLayout=tableLayout;" vertex="1" parent="1">
          <mxGeometry x="390" y="280" width="160" height="80" as="geometry" />
        </mxCell>
        <mxCell id="C1v7L-V6cYP2EohM0xs5-71" value="" style="shape=tableRow;horizontal=0;startSize=0;swimlaneHead=0;swimlaneBody=0;strokeColor=inherit;top=0;left=0;bottom=0;right=0;collapsible=0;dropTarget=0;fillColor=none;points=[[0,0.5],[1,0.5]];portConstraint=eastwest;" vertex="1" parent="C1v7L-V6cYP2EohM0xs5-70">
          <mxGeometry width="160" height="40" as="geometry" />
        </mxCell>
        <mxCell id="C1v7L-V6cYP2EohM0xs5-72" value="DEPARTMENT_LOCATION" style="shape=partialRectangle;html=1;whiteSpace=wrap;connectable=0;strokeColor=inherit;overflow=hidden;fillColor=none;top=0;left=0;bottom=0;right=0;pointerEvents=1;rowspan=1;colspan=2;" vertex="1" parent="C1v7L-V6cYP2EohM0xs5-71">
          <mxGeometry width="160" height="40" as="geometry">
            <mxRectangle width="80" height="40" as="alternateBounds" />
          </mxGeometry>
        </mxCell>
        <mxCell id="C1v7L-V6cYP2EohM0xs5-73" value="" style="shape=partialRectangle;html=1;whiteSpace=wrap;connectable=0;strokeColor=inherit;overflow=hidden;fillColor=none;top=0;left=0;bottom=0;right=0;pointerEvents=1;" vertex="1" visible="0" parent="C1v7L-V6cYP2EohM0xs5-71">
          <mxGeometry x="80" width="80" height="40" as="geometry">
            <mxRectangle width="80" height="40" as="alternateBounds" />
          </mxGeometry>
        </mxCell>
        <mxCell id="C1v7L-V6cYP2EohM0xs5-74" value="" style="shape=tableRow;horizontal=0;startSize=0;swimlaneHead=0;swimlaneBody=0;strokeColor=inherit;top=0;left=0;bottom=0;right=0;collapsible=0;dropTarget=0;fillColor=none;points=[[0,0.5],[1,0.5]];portConstraint=eastwest;" vertex="1" parent="C1v7L-V6cYP2EohM0xs5-70">
          <mxGeometry y="40" width="160" height="40" as="geometry" />
        </mxCell>
        <mxCell id="C1v7L-V6cYP2EohM0xs5-75" value="&lt;span style=&quot;text-decoration-line: underline;&quot;&gt;DNUM&lt;/span&gt;" style="shape=partialRectangle;html=1;whiteSpace=wrap;connectable=0;strokeColor=inherit;overflow=hidden;fillColor=none;top=0;left=0;bottom=0;right=0;pointerEvents=1;" vertex="1" parent="C1v7L-V6cYP2EohM0xs5-74">
          <mxGeometry width="80" height="40" as="geometry">
            <mxRectangle width="80" height="40" as="alternateBounds" />
          </mxGeometry>
        </mxCell>
        <mxCell id="C1v7L-V6cYP2EohM0xs5-76" value="&amp;nbsp;location" style="shape=partialRectangle;html=1;whiteSpace=wrap;connectable=0;strokeColor=inherit;overflow=hidden;fillColor=none;top=0;left=0;bottom=0;right=0;pointerEvents=1;" vertex="1" parent="C1v7L-V6cYP2EohM0xs5-74">
          <mxGeometry x="80" width="80" height="40" as="geometry">
            <mxRectangle width="80" height="40" as="alternateBounds" />
          </mxGeometry>
        </mxCell>
        <mxCell id="C1v7L-V6cYP2EohM0xs5-77" value="" style="shape=table;startSize=0;container=1;collapsible=0;childLayout=tableLayout;" vertex="1" parent="1">
          <mxGeometry x="340" y="420" width="300" height="80" as="geometry" />
        </mxCell>
        <mxCell id="C1v7L-V6cYP2EohM0xs5-78" value="" style="shape=tableRow;horizontal=0;startSize=0;swimlaneHead=0;swimlaneBody=0;strokeColor=inherit;top=0;left=0;bottom=0;right=0;collapsible=0;dropTarget=0;fillColor=none;points=[[0,0.5],[1,0.5]];portConstraint=eastwest;" vertex="1" parent="C1v7L-V6cYP2EohM0xs5-77">
          <mxGeometry width="300" height="40" as="geometry" />
        </mxCell>
        <mxCell id="C1v7L-V6cYP2EohM0xs5-79" value="PROJECT" style="shape=partialRectangle;html=1;whiteSpace=wrap;connectable=0;strokeColor=inherit;overflow=hidden;fillColor=none;top=0;left=0;bottom=0;right=0;pointerEvents=1;rowspan=1;colspan=5;" vertex="1" parent="C1v7L-V6cYP2EohM0xs5-78">
          <mxGeometry width="300" height="40" as="geometry">
            <mxRectangle width="60" height="40" as="alternateBounds" />
          </mxGeometry>
        </mxCell>
        <mxCell id="C1v7L-V6cYP2EohM0xs5-80" value="" style="shape=partialRectangle;html=1;whiteSpace=wrap;connectable=0;strokeColor=inherit;overflow=hidden;fillColor=none;top=0;left=0;bottom=0;right=0;pointerEvents=1;" vertex="1" visible="0" parent="C1v7L-V6cYP2EohM0xs5-78">
          <mxGeometry x="60" width="60" height="40" as="geometry">
            <mxRectangle width="60" height="40" as="alternateBounds" />
          </mxGeometry>
        </mxCell>
        <mxCell id="C1v7L-V6cYP2EohM0xs5-81" value="" style="shape=partialRectangle;html=1;whiteSpace=wrap;connectable=0;strokeColor=inherit;overflow=hidden;fillColor=none;top=0;left=0;bottom=0;right=0;pointerEvents=1;" vertex="1" visible="0" parent="C1v7L-V6cYP2EohM0xs5-78">
          <mxGeometry x="120" width="60" height="40" as="geometry">
            <mxRectangle width="60" height="40" as="alternateBounds" />
          </mxGeometry>
        </mxCell>
        <mxCell id="C1v7L-V6cYP2EohM0xs5-82" value="" style="shape=partialRectangle;html=1;whiteSpace=wrap;connectable=0;strokeColor=inherit;overflow=hidden;fillColor=none;top=0;left=0;bottom=0;right=0;pointerEvents=1;" vertex="1" visible="0" parent="C1v7L-V6cYP2EohM0xs5-78">
          <mxGeometry x="180" width="60" height="40" as="geometry">
            <mxRectangle width="60" height="40" as="alternateBounds" />
          </mxGeometry>
        </mxCell>
        <mxCell id="C1v7L-V6cYP2EohM0xs5-83" value="" style="shape=partialRectangle;html=1;whiteSpace=wrap;connectable=0;strokeColor=inherit;overflow=hidden;fillColor=none;top=0;left=0;bottom=0;right=0;pointerEvents=1;" vertex="1" visible="0" parent="C1v7L-V6cYP2EohM0xs5-78">
          <mxGeometry x="240" width="60" height="40" as="geometry">
            <mxRectangle width="60" height="40" as="alternateBounds" />
          </mxGeometry>
        </mxCell>
        <mxCell id="C1v7L-V6cYP2EohM0xs5-84" value="" style="shape=tableRow;horizontal=0;startSize=0;swimlaneHead=0;swimlaneBody=0;strokeColor=inherit;top=0;left=0;bottom=0;right=0;collapsible=0;dropTarget=0;fillColor=none;points=[[0,0.5],[1,0.5]];portConstraint=eastwest;" vertex="1" parent="C1v7L-V6cYP2EohM0xs5-77">
          <mxGeometry y="40" width="300" height="40" as="geometry" />
        </mxCell>
        <mxCell id="C1v7L-V6cYP2EohM0xs5-85" value="&lt;span style=&quot;text-decoration-line: underline;&quot;&gt;PNumber&lt;/span&gt;" style="shape=partialRectangle;html=1;whiteSpace=wrap;connectable=0;strokeColor=inherit;overflow=hidden;fillColor=none;top=0;left=0;bottom=0;right=0;pointerEvents=1;" vertex="1" parent="C1v7L-V6cYP2EohM0xs5-84">
          <mxGeometry width="60" height="40" as="geometry">
            <mxRectangle width="60" height="40" as="alternateBounds" />
          </mxGeometry>
        </mxCell>
        <mxCell id="C1v7L-V6cYP2EohM0xs5-86" value="Pname" style="shape=partialRectangle;html=1;whiteSpace=wrap;connectable=0;strokeColor=inherit;overflow=hidden;fillColor=none;top=0;left=0;bottom=0;right=0;pointerEvents=1;" vertex="1" parent="C1v7L-V6cYP2EohM0xs5-84">
          <mxGeometry x="60" width="60" height="40" as="geometry">
            <mxRectangle width="60" height="40" as="alternateBounds" />
          </mxGeometry>
        </mxCell>
        <mxCell id="C1v7L-V6cYP2EohM0xs5-87" value="Location" style="shape=partialRectangle;html=1;whiteSpace=wrap;connectable=0;strokeColor=inherit;overflow=hidden;fillColor=none;top=0;left=0;bottom=0;right=0;pointerEvents=1;" vertex="1" parent="C1v7L-V6cYP2EohM0xs5-84">
          <mxGeometry x="120" width="60" height="40" as="geometry">
            <mxRectangle width="60" height="40" as="alternateBounds" />
          </mxGeometry>
        </mxCell>
        <mxCell id="C1v7L-V6cYP2EohM0xs5-88" value="City" style="shape=partialRectangle;html=1;whiteSpace=wrap;connectable=0;strokeColor=inherit;overflow=hidden;fillColor=none;top=0;left=0;bottom=0;right=0;pointerEvents=1;" vertex="1" parent="C1v7L-V6cYP2EohM0xs5-84">
          <mxGeometry x="180" width="60" height="40" as="geometry">
            <mxRectangle width="60" height="40" as="alternateBounds" />
          </mxGeometry>
        </mxCell>
        <mxCell id="C1v7L-V6cYP2EohM0xs5-89" value="DNUM" style="shape=partialRectangle;html=1;whiteSpace=wrap;connectable=0;strokeColor=inherit;overflow=hidden;fillColor=none;top=0;left=0;bottom=0;right=0;pointerEvents=1;" vertex="1" parent="C1v7L-V6cYP2EohM0xs5-84">
          <mxGeometry x="240" width="60" height="40" as="geometry">
            <mxRectangle width="60" height="40" as="alternateBounds" />
          </mxGeometry>
        </mxCell>
        <mxCell id="C1v7L-V6cYP2EohM0xs5-90" value="" style="shape=table;startSize=0;container=1;collapsible=0;childLayout=tableLayout;" vertex="1" parent="1">
          <mxGeometry x="40" y="30" width="290" height="80" as="geometry" />
        </mxCell>
        <mxCell id="C1v7L-V6cYP2EohM0xs5-91" value="" style="shape=tableRow;horizontal=0;startSize=0;swimlaneHead=0;swimlaneBody=0;strokeColor=inherit;top=0;left=0;bottom=0;right=0;collapsible=0;dropTarget=0;fillColor=none;points=[[0,0.5],[1,0.5]];portConstraint=eastwest;" vertex="1" parent="C1v7L-V6cYP2EohM0xs5-90">
          <mxGeometry width="290" height="40" as="geometry" />
        </mxCell>
        <mxCell id="C1v7L-V6cYP2EohM0xs5-92" value="DEPENDENT" style="shape=partialRectangle;html=1;whiteSpace=wrap;connectable=0;strokeColor=inherit;overflow=hidden;fillColor=none;top=0;left=0;bottom=0;right=0;pointerEvents=1;rowspan=1;colspan=4;" vertex="1" parent="C1v7L-V6cYP2EohM0xs5-91">
          <mxGeometry width="290" height="40" as="geometry">
            <mxRectangle width="110" height="40" as="alternateBounds" />
          </mxGeometry>
        </mxCell>
        <mxCell id="C1v7L-V6cYP2EohM0xs5-93" value="" style="shape=partialRectangle;html=1;whiteSpace=wrap;connectable=0;strokeColor=inherit;overflow=hidden;fillColor=none;top=0;left=0;bottom=0;right=0;pointerEvents=1;" vertex="1" visible="0" parent="C1v7L-V6cYP2EohM0xs5-91">
          <mxGeometry x="110" width="50" height="40" as="geometry">
            <mxRectangle width="50" height="40" as="alternateBounds" />
          </mxGeometry>
        </mxCell>
        <mxCell id="C1v7L-V6cYP2EohM0xs5-94" value="" style="shape=partialRectangle;html=1;whiteSpace=wrap;connectable=0;strokeColor=inherit;overflow=hidden;fillColor=none;top=0;left=0;bottom=0;right=0;pointerEvents=1;" vertex="1" visible="0" parent="C1v7L-V6cYP2EohM0xs5-91">
          <mxGeometry x="160" width="60" height="40" as="geometry">
            <mxRectangle width="60" height="40" as="alternateBounds" />
          </mxGeometry>
        </mxCell>
        <mxCell id="C1v7L-V6cYP2EohM0xs5-95" value="" style="shape=partialRectangle;html=1;whiteSpace=wrap;connectable=0;strokeColor=inherit;overflow=hidden;fillColor=none;top=0;left=0;bottom=0;right=0;pointerEvents=1;" vertex="1" visible="0" parent="C1v7L-V6cYP2EohM0xs5-91">
          <mxGeometry x="220" width="70" height="40" as="geometry">
            <mxRectangle width="70" height="40" as="alternateBounds" />
          </mxGeometry>
        </mxCell>
        <mxCell id="C1v7L-V6cYP2EohM0xs5-96" value="" style="shape=tableRow;horizontal=0;startSize=0;swimlaneHead=0;swimlaneBody=0;strokeColor=inherit;top=0;left=0;bottom=0;right=0;collapsible=0;dropTarget=0;fillColor=none;points=[[0,0.5],[1,0.5]];portConstraint=eastwest;" vertex="1" parent="C1v7L-V6cYP2EohM0xs5-90">
          <mxGeometry y="40" width="290" height="40" as="geometry" />
        </mxCell>
        <mxCell id="C1v7L-V6cYP2EohM0xs5-97" value="&lt;div&gt;&lt;div&gt;&lt;u style=&quot;background-color: transparent; color: light-dark(rgb(0, 0, 0), rgb(255, 255, 255));&quot;&gt;Dependent_Name&lt;/u&gt;&lt;/div&gt;&lt;/div&gt;" style="shape=partialRectangle;html=1;whiteSpace=wrap;connectable=0;strokeColor=inherit;overflow=hidden;fillColor=none;top=0;left=0;bottom=0;right=0;pointerEvents=1;" vertex="1" parent="C1v7L-V6cYP2EohM0xs5-96">
          <mxGeometry width="110" height="40" as="geometry">
            <mxRectangle width="110" height="40" as="alternateBounds" />
          </mxGeometry>
        </mxCell>
        <mxCell id="C1v7L-V6cYP2EohM0xs5-98" value="&lt;span style=&quot;text-decoration-line: underline;&quot;&gt;SSN&lt;/span&gt;" style="shape=partialRectangle;html=1;whiteSpace=wrap;connectable=0;strokeColor=inherit;overflow=hidden;fillColor=none;top=0;left=0;bottom=0;right=0;pointerEvents=1;" vertex="1" parent="C1v7L-V6cYP2EohM0xs5-96">
          <mxGeometry x="110" width="50" height="40" as="geometry">
            <mxRectangle width="50" height="40" as="alternateBounds" />
          </mxGeometry>
        </mxCell>
        <mxCell id="C1v7L-V6cYP2EohM0xs5-99" value="Gender" style="shape=partialRectangle;html=1;whiteSpace=wrap;connectable=0;strokeColor=inherit;overflow=hidden;fillColor=none;top=0;left=0;bottom=0;right=0;pointerEvents=1;" vertex="1" parent="C1v7L-V6cYP2EohM0xs5-96">
          <mxGeometry x="160" width="60" height="40" as="geometry">
            <mxRectangle width="60" height="40" as="alternateBounds" />
          </mxGeometry>
        </mxCell>
        <mxCell id="C1v7L-V6cYP2EohM0xs5-100" value="Birth_Date" style="shape=partialRectangle;html=1;whiteSpace=wrap;connectable=0;strokeColor=inherit;overflow=hidden;fillColor=none;top=0;left=0;bottom=0;right=0;pointerEvents=1;" vertex="1" parent="C1v7L-V6cYP2EohM0xs5-96">
          <mxGeometry x="220" width="70" height="40" as="geometry">
            <mxRectangle width="70" height="40" as="alternateBounds" />
          </mxGeometry>
        </mxCell>
        <mxCell id="C1v7L-V6cYP2EohM0xs5-101" value="" style="shape=table;startSize=0;container=1;collapsible=0;childLayout=tableLayout;" vertex="1" parent="1">
          <mxGeometry x="610" y="280" width="190" height="80" as="geometry" />
        </mxCell>
        <mxCell id="C1v7L-V6cYP2EohM0xs5-102" value="" style="shape=tableRow;horizontal=0;startSize=0;swimlaneHead=0;swimlaneBody=0;strokeColor=inherit;top=0;left=0;bottom=0;right=0;collapsible=0;dropTarget=0;fillColor=none;points=[[0,0.5],[1,0.5]];portConstraint=eastwest;" vertex="1" parent="C1v7L-V6cYP2EohM0xs5-101">
          <mxGeometry width="190" height="40" as="geometry" />
        </mxCell>
        <mxCell id="C1v7L-V6cYP2EohM0xs5-103" value="manager" style="shape=partialRectangle;html=1;whiteSpace=wrap;connectable=0;strokeColor=inherit;overflow=hidden;fillColor=none;top=0;left=0;bottom=0;right=0;pointerEvents=1;rowspan=1;colspan=3;" vertex="1" parent="C1v7L-V6cYP2EohM0xs5-102">
          <mxGeometry width="190" height="40" as="geometry">
            <mxRectangle width="60" height="40" as="alternateBounds" />
          </mxGeometry>
        </mxCell>
        <mxCell id="C1v7L-V6cYP2EohM0xs5-104" value="" style="shape=partialRectangle;html=1;whiteSpace=wrap;connectable=0;strokeColor=inherit;overflow=hidden;fillColor=none;top=0;left=0;bottom=0;right=0;pointerEvents=1;" vertex="1" visible="0" parent="C1v7L-V6cYP2EohM0xs5-102">
          <mxGeometry x="60" width="60" height="40" as="geometry">
            <mxRectangle width="60" height="40" as="alternateBounds" />
          </mxGeometry>
        </mxCell>
        <mxCell id="C1v7L-V6cYP2EohM0xs5-105" value="" style="shape=partialRectangle;html=1;whiteSpace=wrap;connectable=0;strokeColor=inherit;overflow=hidden;fillColor=none;top=0;left=0;bottom=0;right=0;pointerEvents=1;" vertex="1" visible="0" parent="C1v7L-V6cYP2EohM0xs5-102">
          <mxGeometry x="120" width="70" height="40" as="geometry">
            <mxRectangle width="70" height="40" as="alternateBounds" />
          </mxGeometry>
        </mxCell>
        <mxCell id="C1v7L-V6cYP2EohM0xs5-106" value="" style="shape=tableRow;horizontal=0;startSize=0;swimlaneHead=0;swimlaneBody=0;strokeColor=inherit;top=0;left=0;bottom=0;right=0;collapsible=0;dropTarget=0;fillColor=none;points=[[0,0.5],[1,0.5]];portConstraint=eastwest;" vertex="1" parent="C1v7L-V6cYP2EohM0xs5-101">
          <mxGeometry y="40" width="190" height="40" as="geometry" />
        </mxCell>
        <mxCell id="C1v7L-V6cYP2EohM0xs5-107" value="&lt;span style=&quot;text-decoration-line: underline;&quot;&gt;SSN&lt;/span&gt;" style="shape=partialRectangle;html=1;whiteSpace=wrap;connectable=0;strokeColor=inherit;overflow=hidden;fillColor=none;top=0;left=0;bottom=0;right=0;pointerEvents=1;" vertex="1" parent="C1v7L-V6cYP2EohM0xs5-106">
          <mxGeometry width="60" height="40" as="geometry">
            <mxRectangle width="60" height="40" as="alternateBounds" />
          </mxGeometry>
        </mxCell>
        <mxCell id="C1v7L-V6cYP2EohM0xs5-108" value="&lt;span style=&quot;text-decoration-line: underline;&quot;&gt;DNUM&lt;/span&gt;" style="shape=partialRectangle;html=1;whiteSpace=wrap;connectable=0;strokeColor=inherit;overflow=hidden;fillColor=none;top=0;left=0;bottom=0;right=0;pointerEvents=1;" vertex="1" parent="C1v7L-V6cYP2EohM0xs5-106">
          <mxGeometry x="60" width="60" height="40" as="geometry">
            <mxRectangle width="60" height="40" as="alternateBounds" />
          </mxGeometry>
        </mxCell>
        <mxCell id="C1v7L-V6cYP2EohM0xs5-109" value="hiring_Date" style="shape=partialRectangle;html=1;whiteSpace=wrap;connectable=0;strokeColor=inherit;overflow=hidden;fillColor=none;top=0;left=0;bottom=0;right=0;pointerEvents=1;" vertex="1" parent="C1v7L-V6cYP2EohM0xs5-106">
          <mxGeometry x="120" width="70" height="40" as="geometry">
            <mxRectangle width="70" height="40" as="alternateBounds" />
          </mxGeometry>
        </mxCell>
        <mxCell id="C1v7L-V6cYP2EohM0xs5-110" value="" style="shape=table;startSize=0;container=1;collapsible=0;childLayout=tableLayout;" vertex="1" parent="1">
          <mxGeometry x="40" y="420" width="210" height="80" as="geometry" />
        </mxCell>
        <mxCell id="C1v7L-V6cYP2EohM0xs5-111" value="" style="shape=tableRow;horizontal=0;startSize=0;swimlaneHead=0;swimlaneBody=0;strokeColor=inherit;top=0;left=0;bottom=0;right=0;collapsible=0;dropTarget=0;fillColor=none;points=[[0,0.5],[1,0.5]];portConstraint=eastwest;" vertex="1" parent="C1v7L-V6cYP2EohM0xs5-110">
          <mxGeometry width="210" height="40" as="geometry" />
        </mxCell>
        <mxCell id="C1v7L-V6cYP2EohM0xs5-112" value="PROJECT_EMPLOYEE" style="shape=partialRectangle;html=1;whiteSpace=wrap;connectable=0;strokeColor=inherit;overflow=hidden;fillColor=none;top=0;left=0;bottom=0;right=0;pointerEvents=1;rowspan=1;colspan=3;" vertex="1" parent="C1v7L-V6cYP2EohM0xs5-111">
          <mxGeometry width="210" height="40" as="geometry">
            <mxRectangle width="60" height="40" as="alternateBounds" />
          </mxGeometry>
        </mxCell>
        <mxCell id="C1v7L-V6cYP2EohM0xs5-113" value="" style="shape=partialRectangle;html=1;whiteSpace=wrap;connectable=0;strokeColor=inherit;overflow=hidden;fillColor=none;top=0;left=0;bottom=0;right=0;pointerEvents=1;" vertex="1" visible="0" parent="C1v7L-V6cYP2EohM0xs5-111">
          <mxGeometry x="60" width="60" height="40" as="geometry">
            <mxRectangle width="60" height="40" as="alternateBounds" />
          </mxGeometry>
        </mxCell>
        <mxCell id="C1v7L-V6cYP2EohM0xs5-114" value="" style="shape=partialRectangle;html=1;whiteSpace=wrap;connectable=0;strokeColor=inherit;overflow=hidden;fillColor=none;top=0;left=0;bottom=0;right=0;pointerEvents=1;" vertex="1" visible="0" parent="C1v7L-V6cYP2EohM0xs5-111">
          <mxGeometry x="120" width="90" height="40" as="geometry">
            <mxRectangle width="90" height="40" as="alternateBounds" />
          </mxGeometry>
        </mxCell>
        <mxCell id="C1v7L-V6cYP2EohM0xs5-115" value="" style="shape=tableRow;horizontal=0;startSize=0;swimlaneHead=0;swimlaneBody=0;strokeColor=inherit;top=0;left=0;bottom=0;right=0;collapsible=0;dropTarget=0;fillColor=none;points=[[0,0.5],[1,0.5]];portConstraint=eastwest;" vertex="1" parent="C1v7L-V6cYP2EohM0xs5-110">
          <mxGeometry y="40" width="210" height="40" as="geometry" />
        </mxCell>
        <mxCell id="C1v7L-V6cYP2EohM0xs5-116" value="&lt;span style=&quot;text-decoration-line: underline;&quot;&gt;SSN&lt;/span&gt;" style="shape=partialRectangle;html=1;whiteSpace=wrap;connectable=0;strokeColor=inherit;overflow=hidden;fillColor=none;top=0;left=0;bottom=0;right=0;pointerEvents=1;" vertex="1" parent="C1v7L-V6cYP2EohM0xs5-115">
          <mxGeometry width="60" height="40" as="geometry">
            <mxRectangle width="60" height="40" as="alternateBounds" />
          </mxGeometry>
        </mxCell>
        <mxCell id="C1v7L-V6cYP2EohM0xs5-117" value="&lt;span style=&quot;text-decoration-line: underline;&quot;&gt;PNumber&lt;/span&gt;" style="shape=partialRectangle;html=1;whiteSpace=wrap;connectable=0;strokeColor=inherit;overflow=hidden;fillColor=none;top=0;left=0;bottom=0;right=0;pointerEvents=1;" vertex="1" parent="C1v7L-V6cYP2EohM0xs5-115">
          <mxGeometry x="60" width="60" height="40" as="geometry">
            <mxRectangle width="60" height="40" as="alternateBounds" />
          </mxGeometry>
        </mxCell>
        <mxCell id="C1v7L-V6cYP2EohM0xs5-118" value="working_hours" style="shape=partialRectangle;html=1;whiteSpace=wrap;connectable=0;strokeColor=inherit;overflow=hidden;fillColor=none;top=0;left=0;bottom=0;right=0;pointerEvents=1;" vertex="1" parent="C1v7L-V6cYP2EohM0xs5-115">
          <mxGeometry x="120" width="90" height="40" as="geometry">
            <mxRectangle width="90" height="40" as="alternateBounds" />
          </mxGeometry>
        </mxCell>
        <mxCell id="C1v7L-V6cYP2EohM0xs5-119" value="" style="endArrow=none;dashed=1;html=1;dashPattern=1 3;strokeWidth=2;rounded=0;" edge="1" parent="1">
          <mxGeometry width="50" height="50" relative="1" as="geometry">
            <mxPoint x="600" y="200" as="sourcePoint" />
            <mxPoint x="670" y="200" as="targetPoint" />
          </mxGeometry>
        </mxCell>
        <mxCell id="C1v7L-V6cYP2EohM0xs5-120" value="" style="endArrow=none;dashed=1;html=1;dashPattern=1 3;strokeWidth=2;rounded=0;" edge="1" parent="1">
          <mxGeometry width="50" height="50" relative="1" as="geometry">
            <mxPoint x="537" y="200" as="sourcePoint" />
            <mxPoint x="587" y="200" as="targetPoint" />
          </mxGeometry>
        </mxCell>
        <mxCell id="C1v7L-V6cYP2EohM0xs5-121" value="" style="endArrow=none;dashed=1;html=1;dashPattern=1 3;strokeWidth=2;rounded=0;" edge="1" parent="1">
          <mxGeometry width="50" height="50" relative="1" as="geometry">
            <mxPoint x="586" y="490" as="sourcePoint" />
            <mxPoint x="636" y="490" as="targetPoint" />
          </mxGeometry>
        </mxCell>
        <mxCell id="C1v7L-V6cYP2EohM0xs5-125" value="" style="endArrow=classic;html=1;rounded=0;entryX=0;entryY=0.5;entryDx=0;entryDy=0;exitX=0.462;exitY=0.9;exitDx=0;exitDy=0;exitPerimeter=0;fillColor=#f5f5f5;strokeColor=#666666;" edge="1" parent="1" source="C1v7L-V6cYP2EohM0xs5-96" target="C1v7L-V6cYP2EohM0xs5-55">
          <mxGeometry width="50" height="50" relative="1" as="geometry">
            <mxPoint x="160" y="230" as="sourcePoint" />
            <mxPoint x="210" y="180" as="targetPoint" />
            <Array as="points">
              <mxPoint x="173" y="190" />
            </Array>
          </mxGeometry>
        </mxCell>
        <mxCell id="C1v7L-V6cYP2EohM0xs5-126" value="" style="endArrow=classic;html=1;rounded=0;entryX=0.333;entryY=0.975;entryDx=0;entryDy=0;exitX=0;exitY=0.5;exitDx=0;exitDy=0;entryPerimeter=0;fillColor=#f8cecc;strokeColor=#b85450;" edge="1" parent="1" source="C1v7L-V6cYP2EohM0xs5-74" target="C1v7L-V6cYP2EohM0xs5-67">
          <mxGeometry width="50" height="50" relative="1" as="geometry">
            <mxPoint x="440" y="410" as="sourcePoint" />
            <mxPoint x="490" y="360" as="targetPoint" />
            <Array as="points">
              <mxPoint x="360" y="340" />
              <mxPoint x="360" y="390" />
              <mxPoint x="220" y="390" />
            </Array>
          </mxGeometry>
        </mxCell>
        <mxCell id="C1v7L-V6cYP2EohM0xs5-127" value="" style="endArrow=classic;html=1;rounded=0;entryX=0.073;entryY=0.975;entryDx=0;entryDy=0;entryPerimeter=0;exitX=0;exitY=0.5;exitDx=0;exitDy=0;fillColor=#d5e8d4;strokeColor=#82b366;" edge="1" parent="1" source="C1v7L-V6cYP2EohM0xs5-106" target="C1v7L-V6cYP2EohM0xs5-55">
          <mxGeometry width="50" height="50" relative="1" as="geometry">
            <mxPoint x="560" y="370" as="sourcePoint" />
            <mxPoint x="610" y="320" as="targetPoint" />
            <Array as="points">
              <mxPoint x="580" y="340" />
              <mxPoint x="580" y="250" />
              <mxPoint x="262" y="250" />
            </Array>
          </mxGeometry>
        </mxCell>
        <mxCell id="C1v7L-V6cYP2EohM0xs5-128" value="" style="endArrow=classic;html=1;rounded=0;entryX=0.1;entryY=1.05;entryDx=0;entryDy=0;entryPerimeter=0;exitX=0.453;exitY=1.025;exitDx=0;exitDy=0;exitPerimeter=0;fillColor=#e1d5e7;strokeColor=#9673a6;" edge="1" parent="1" source="C1v7L-V6cYP2EohM0xs5-106" target="C1v7L-V6cYP2EohM0xs5-67">
          <mxGeometry width="50" height="50" relative="1" as="geometry">
            <mxPoint x="560" y="370" as="sourcePoint" />
            <mxPoint x="610" y="320" as="targetPoint" />
            <Array as="points">
              <mxPoint x="696" y="400" />
              <mxPoint x="450" y="400" />
              <mxPoint x="192" y="400" />
            </Array>
          </mxGeometry>
        </mxCell>
        <mxCell id="C1v7L-V6cYP2EohM0xs5-129" value="" style="endArrow=classic;html=1;rounded=0;entryX=0;entryY=0.5;entryDx=0;entryDy=0;exitX=0.745;exitY=0.925;exitDx=0;exitDy=0;exitPerimeter=0;fillColor=#fff2cc;strokeColor=#d6b656;" edge="1" parent="1" source="C1v7L-V6cYP2EohM0xs5-55" target="C1v7L-V6cYP2EohM0xs5-67">
          <mxGeometry width="50" height="50" relative="1" as="geometry">
            <mxPoint x="560" y="270" as="sourcePoint" />
            <mxPoint x="540" y="210" as="targetPoint" />
            <Array as="points">
              <mxPoint x="558" y="270" />
              <mxPoint x="150" y="270" />
              <mxPoint x="150" y="340" />
            </Array>
          </mxGeometry>
        </mxCell>
        <mxCell id="C1v7L-V6cYP2EohM0xs5-131" value="" style="endArrow=classic;html=1;rounded=0;entryX=0.109;entryY=1.05;entryDx=0;entryDy=0;entryPerimeter=0;fillColor=#ffe6cc;strokeColor=#d79b00;" edge="1" parent="1">
          <mxGeometry width="50" height="50" relative="1" as="geometry">
            <mxPoint x="623" y="210" as="sourcePoint" />
            <mxPoint x="277.08000000000004" y="210" as="targetPoint" />
            <Array as="points">
              <mxPoint x="623" y="238" />
              <mxPoint x="277.12" y="238" />
            </Array>
          </mxGeometry>
        </mxCell>
        <mxCell id="C1v7L-V6cYP2EohM0xs5-132" value="" style="endArrow=classic;html=1;rounded=0;entryX=0.007;entryY=0.725;entryDx=0;entryDy=0;entryPerimeter=0;exitX=0;exitY=0.5;exitDx=0;exitDy=0;fillColor=#dae8fc;strokeColor=#6c8ebf;" edge="1" parent="1" source="C1v7L-V6cYP2EohM0xs5-115" target="C1v7L-V6cYP2EohM0xs5-55">
          <mxGeometry width="50" height="50" relative="1" as="geometry">
            <mxPoint y="510" as="sourcePoint" />
            <mxPoint x="40" y="480" as="targetPoint" />
            <Array as="points">
              <mxPoint x="20" y="480" />
              <mxPoint x="20" y="201" />
            </Array>
          </mxGeometry>
        </mxCell>
        <mxCell id="C1v7L-V6cYP2EohM0xs5-133" value="" style="endArrow=classic;html=1;rounded=0;entryX=0.07;entryY=1;entryDx=0;entryDy=0;entryPerimeter=0;exitX=0.381;exitY=1;exitDx=0;exitDy=0;exitPerimeter=0;fillColor=#008a00;strokeColor=#005700;" edge="1" parent="1" source="C1v7L-V6cYP2EohM0xs5-115" target="C1v7L-V6cYP2EohM0xs5-84">
          <mxGeometry width="50" height="50" relative="1" as="geometry">
            <mxPoint x="290" y="640" as="sourcePoint" />
            <mxPoint x="340" y="590" as="targetPoint" />
            <Array as="points">
              <mxPoint x="120" y="540" />
              <mxPoint x="361" y="540" />
            </Array>
          </mxGeometry>
        </mxCell>
        <mxCell id="C1v7L-V6cYP2EohM0xs5-134" value="" style="endArrow=classic;html=1;rounded=0;entryX=0.175;entryY=1.1;entryDx=0;entryDy=0;entryPerimeter=0;exitX=0.913;exitY=1.05;exitDx=0;exitDy=0;exitPerimeter=0;fillColor=#60a917;strokeColor=#2D7600;" edge="1" parent="1" source="C1v7L-V6cYP2EohM0xs5-84" target="C1v7L-V6cYP2EohM0xs5-67">
          <mxGeometry width="50" height="50" relative="1" as="geometry">
            <mxPoint x="270" y="540" as="sourcePoint" />
            <mxPoint x="320" y="490" as="targetPoint" />
            <Array as="points">
              <mxPoint x="614" y="520" />
              <mxPoint x="290" y="520" />
              <mxPoint x="290" y="410" />
              <mxPoint x="200" y="410" />
            </Array>
          </mxGeometry>
        </mxCell>
      </root>
    </mxGraphModel>
  </diagram>
</mxfile>
